<svg width="80" height="20" viewBox="0 0 80 20" fill="none" xmlns="http://www.w3.org/2000/svg">
<path d="M6.34183 20.0002C4.8013 20.0002 3.4619 19.6318 2.32363 18.8949C1.18535 18.158 0.410807 17.1654 0 15.917L2.8243 14.5646C3.18375 15.3275 3.67159 15.9257 4.2878 16.3591C4.90401 16.7926 5.58868 17.0093 6.34183 17.0093C6.88957 17.0093 7.30894 16.8966 7.59993 16.6712C7.89091 16.4458 8.03641 16.1337 8.03641 15.7349C8.03641 15.5269 7.98506 15.3492 7.88236 15.2018C7.77965 15.0544 7.6256 14.92 7.4202 14.7987C7.21479 14.6773 6.95804 14.5733 6.64994 14.4866L4.26212 13.8104C3.11528 13.4809 2.23376 12.9478 1.61755 12.2109C1.00134 11.474 0.693236 10.6027 0.693236 9.59711C0.693236 8.71284 0.915757 7.94128 1.3608 7.28241C1.80584 6.62355 2.43061 6.10773 3.2351 5.73495C4.0396 5.36217 4.96392 5.17578 6.00805 5.17578C7.37741 5.17578 8.57987 5.50088 9.61545 6.15107C10.651 6.80127 11.3828 7.71588 11.8107 8.8949L8.96072 10.2473C8.75532 9.65779 8.38303 9.18532 7.84384 8.82988C7.30466 8.47444 6.69273 8.29672 6.00805 8.29672C5.51166 8.29672 5.12225 8.40075 4.83982 8.60881C4.55739 8.81687 4.41617 9.10296 4.41617 9.46707C4.41617 9.65779 4.46752 9.83118 4.57023 9.98722C4.67293 10.1433 4.83982 10.282 5.0709 10.4033C5.30198 10.5247 5.58868 10.6374 5.93102 10.7415L8.16478 11.4177C9.32874 11.7644 10.2188 12.2889 10.835 12.9911C11.4512 13.6933 11.7593 14.5559 11.7593 15.5789C11.7593 16.4632 11.5325 17.2347 11.0789 17.8936C10.6253 18.5525 9.9963 19.0683 9.1918 19.4411C8.38731 19.8138 7.43731 20.0002 6.34183 20.0002Z" fill="white"/>
<path d="M14.0701 19.6879V0H17.9214V12.6138L16.4836 12.1456L22.6713 5.48765H27.4213L22.3376 11.2094L27.3956 19.6879H23.0308L18.7943 12.4837L21.0281 11.9116L16.7403 16.645L17.9214 14.3823V19.6879H14.0701Z" fill="white"/>
<path fill-rule="evenodd" clip-rule="evenodd" d="M29.116 0.312012V4.21318H32.9673V0.312012H29.116ZM29.116 5.48764V19.6879H32.9673V5.48764H29.116Z" fill="white"/>
<path d="M35.7915 19.6879V0H39.6428V19.6879H35.7915Z" fill="white"/>
<path d="M42.467 19.6879V0H46.3184V19.6879H42.467Z" fill="white"/>
<path d="M55.8954 20.0002C54.4062 20.0002 53.1139 19.6665 52.0184 18.9989C50.9229 18.3314 50.0756 17.4341 49.4765 16.3071C48.8774 15.1801 48.5779 13.9317 48.5779 12.562C48.5779 11.1402 48.8903 9.87452 49.515 8.76486C50.1398 7.65519 50.9828 6.7796 52.0441 6.13807C53.1053 5.49654 54.3035 5.17578 55.6386 5.17578C56.7512 5.17578 57.7354 5.3535 58.5913 5.70894C59.4471 6.06438 60.1703 6.56286 60.7609 7.20439C61.3514 7.84592 61.8007 8.58714 62.1088 9.42806C62.4169 10.269 62.571 11.1836 62.571 12.1719C62.571 12.4493 62.5581 12.7224 62.5325 12.9911C62.5068 13.2599 62.4597 13.4896 62.3913 13.6803H51.89V10.8195H60.2088L58.3859 12.1719C58.5571 11.4263 58.5485 10.7631 58.3602 10.1823C58.1719 9.60144 57.8424 9.14197 57.3717 8.80387C56.901 8.46577 56.3233 8.29672 55.6386 8.29672C54.9711 8.29672 54.3976 8.46143 53.9184 8.79087C53.4391 9.1203 53.0796 9.60578 52.84 10.2473C52.6004 10.8888 52.5062 11.6691 52.5576 12.588C52.4891 13.3856 52.5832 14.0878 52.84 14.6946C53.0968 15.3015 53.4904 15.774 54.0211 16.1121C54.5517 16.4502 55.1936 16.6192 55.9467 16.6192C56.6314 16.6192 57.2177 16.4805 57.7055 16.2031C58.1933 15.9257 58.5742 15.5442 58.8481 15.0587L61.9291 16.5412C61.6552 17.2347 61.223 17.8416 60.6325 18.3617C60.042 18.8819 59.3444 19.285 58.5399 19.5711C57.7354 19.8572 56.8539 20.0002 55.8954 20.0002Z" fill="white"/>
<path fill-rule="evenodd" clip-rule="evenodd" d="M67.7575 19.0117C68.8359 19.6706 70.0597 20 71.4291 20C72.3876 20 73.2777 19.8223 74.0993 19.4668C74.7312 19.1935 75.2618 18.8202 75.6912 18.3468V19.6879H79.2858V0H75.4344V6.67994C75.0674 6.31091 74.6352 6.00451 74.1378 5.76073C73.3419 5.37061 72.4304 5.17555 71.4034 5.17555C70.0683 5.17555 68.8615 5.50498 67.7832 6.16385C66.7048 6.82271 65.8489 7.71131 65.2156 8.82965C64.5823 9.94798 64.2656 11.2007 64.2656 12.5878C64.2656 13.9575 64.578 15.2059 65.2028 16.3329C65.8275 17.4599 66.6791 18.3528 67.7575 19.0117ZM73.74 15.9947C73.2093 16.3241 72.5931 16.4889 71.8913 16.4889C71.1895 16.4889 70.5605 16.3241 70.0042 15.9947C69.4479 15.6653 69.0157 15.2058 68.7076 14.6163C68.3995 14.0268 68.2454 13.3506 68.2454 12.5877C68.2454 11.8248 68.3995 11.1529 68.7076 10.5721C69.0157 9.99125 69.4479 9.53178 70.0042 9.19368C70.5605 8.85557 71.1895 8.68652 71.8913 8.68652C72.5931 8.68652 73.2093 8.85124 73.74 9.18067C74.2706 9.5101 74.6857 9.96957 74.9852 10.5591C75.2848 11.1486 75.4345 11.8248 75.4345 12.5877C75.4345 13.3506 75.2848 14.0268 74.9852 14.6163C74.6857 15.2058 74.2706 15.6653 73.74 15.9947Z" fill="white"/>
</svg>
