<svg width="80" height="20" viewBox="0 0 80 20" fill="none" xmlns="http://www.w3.org/2000/svg">
<path d="M6.34183 20C4.8013 20 3.4619 19.6315 2.32363 18.8947C1.18535 18.1578 0.410807 17.1651 0 15.9168L2.8243 14.5644C3.18375 15.3272 3.67159 15.9254 4.2878 16.3589C4.90401 16.7924 5.58868 17.0091 6.34183 17.0091C6.88957 17.0091 7.30894 16.8964 7.59993 16.671C7.89091 16.4456 8.03641 16.1335 8.03641 15.7347C8.03641 15.5266 7.98506 15.3489 7.88236 15.2015C7.77965 15.0542 7.6256 14.9198 7.4202 14.7984C7.21479 14.6771 6.95804 14.573 6.64994 14.4863L4.26212 13.8101C3.11528 13.4807 2.23376 12.9475 1.61755 12.2106C1.00134 11.4738 0.693236 10.6025 0.693236 9.59686C0.693236 8.7126 0.915757 7.94103 1.3608 7.28217C1.80584 6.6233 2.43061 6.10748 3.2351 5.7347C4.0396 5.36193 4.96392 5.17554 6.00805 5.17554C7.37741 5.17554 8.57987 5.50063 9.61545 6.15083C10.651 6.80102 11.3828 7.71563 11.8107 8.89465L8.96072 10.2471C8.75532 9.65755 8.38303 9.18507 7.84384 8.82963C7.30466 8.47419 6.69273 8.29647 6.00805 8.29647C5.51166 8.29647 5.12225 8.4005 4.83982 8.60857C4.55739 8.81663 4.41617 9.10272 4.41617 9.46682C4.41617 9.65755 4.46752 9.83093 4.57023 9.98698C4.67293 10.143 4.83982 10.2817 5.0709 10.4031C5.30198 10.5245 5.58868 10.6372 5.93102 10.7412L8.16478 11.4174C9.32874 11.7642 10.2188 12.2887 10.835 12.9909C11.4512 13.6931 11.7593 14.5557 11.7593 15.5787C11.7593 16.4629 11.5325 17.2345 11.0789 17.8934C10.6253 18.5522 9.9963 19.068 9.1918 19.4408C8.3873 19.8136 7.43731 20 6.34183 20Z" fill="#13183F"/>
<path d="M14.0701 19.6879V0H17.9214V12.6138L16.4836 12.1456L22.6713 5.48765H27.4213L22.3376 11.2094L27.3956 19.6879H23.0308L18.7943 12.4837L21.0281 11.9116L16.7403 16.645L17.9214 14.3823V19.6879H14.0701Z" fill="#13183F"/>
<path fill-rule="evenodd" clip-rule="evenodd" d="M29.116 0.312012V4.21318H32.9673V0.312012H29.116ZM29.116 5.48764V19.6879H32.9673V5.48764H29.116Z" fill="#13183F"/>
<path d="M35.7915 19.6879V0H39.6428V19.6879H35.7915Z" fill="#13183F"/>
<path d="M42.467 19.6879V0H46.3184V19.6879H42.467Z" fill="#13183F"/>
<path d="M55.8954 20C54.4062 20 53.1139 19.6662 52.0184 18.9987C50.9229 18.3312 50.0756 17.4339 49.4765 16.3069C48.8774 15.1799 48.5779 13.9315 48.5779 12.5618C48.5779 11.14 48.8903 9.87428 49.515 8.76461C50.1398 7.65495 50.9828 6.77935 52.0441 6.13783C53.1053 5.4963 54.3035 5.17554 55.6386 5.17554C56.7512 5.17554 57.7354 5.35326 58.5913 5.7087C59.4471 6.06414 60.1703 6.56262 60.7609 7.20415C61.3514 7.84567 61.8007 8.58689 62.1088 9.42781C62.4169 10.2687 62.571 11.1833 62.571 12.1716C62.571 12.4491 62.5582 12.7221 62.5325 12.9909C62.5068 13.2596 62.4597 13.4894 62.3913 13.6801H51.89V10.8192H60.2088L58.3859 12.1716C58.5571 11.4261 58.5485 10.7629 58.3602 10.182C58.1719 9.6012 57.8424 9.14173 57.3717 8.80363C56.901 8.46552 56.3233 8.29647 55.6386 8.29647C54.9711 8.29647 54.3976 8.46119 53.9184 8.79062C53.4391 9.12005 53.0796 9.60553 52.84 10.2471C52.6004 10.8886 52.5062 11.6688 52.5576 12.5878C52.4891 13.3853 52.5832 14.0875 52.84 14.6944C53.0968 15.3012 53.4904 15.7737 54.0211 16.1118C54.5517 16.4499 55.1936 16.619 55.9467 16.619C56.6314 16.619 57.2177 16.4803 57.7055 16.2028C58.1933 15.9254 58.5742 15.544 58.8481 15.0585L61.9291 16.5409C61.6552 17.2345 61.223 17.8413 60.6325 18.3615C60.042 18.8816 59.3444 19.2848 58.5399 19.5709C57.7354 19.8569 56.8539 20 55.8954 20Z" fill="#13183F"/>
<path fill-rule="evenodd" clip-rule="evenodd" d="M67.7575 19.0117C68.8359 19.6706 70.0597 20 71.4291 20C72.3876 20 73.2777 19.8223 74.0993 19.4668C74.7312 19.1935 75.2618 18.8202 75.6912 18.3468V19.6879H79.2857V0H75.4344V6.67994C75.0674 6.31091 74.6352 6.00451 74.1378 5.76073C73.3419 5.37061 72.4304 5.17555 71.4034 5.17555C70.0683 5.17555 68.8615 5.50498 67.7832 6.16385C66.7048 6.82271 65.8489 7.71131 65.2156 8.82965C64.5823 9.94798 64.2656 11.2007 64.2656 12.5878C64.2656 13.9575 64.578 15.2059 65.2028 16.3329C65.8275 17.4599 66.6791 18.3528 67.7575 19.0117ZM73.74 15.9947C73.2093 16.3241 72.5931 16.4889 71.8913 16.4889C71.1895 16.4889 70.5605 16.3241 70.0042 15.9947C69.4479 15.6653 69.0157 15.2058 68.7076 14.6163C68.3995 14.0268 68.2454 13.3506 68.2454 12.5877C68.2454 11.8248 68.3995 11.1529 68.7076 10.5721C69.0157 9.99125 69.4479 9.53178 70.0042 9.19368C70.5605 8.85557 71.1895 8.68652 71.8913 8.68652C72.5931 8.68652 73.2093 8.85124 73.74 9.18067C74.2706 9.5101 74.6857 9.96957 74.9852 10.5591C75.2848 11.1486 75.4345 11.8248 75.4345 12.5877C75.4345 13.3506 75.2848 14.0268 74.9852 14.6163C74.6857 15.2058 74.2706 15.6653 73.74 15.9947Z" fill="#13183F"/>
</svg>
