<svg width="56" height="56" viewBox="0 0 56 56" fill="none" xmlns="http://www.w3.org/2000/svg">
<rect width="56" height="56" rx="28" fill="url(#paint0_linear_4_2515)"/>
<path fill-rule="evenodd" clip-rule="evenodd" d="M34.5919 18.7159C34.5792 19.4681 34.2504 20.1802 33.6861 20.6777C32.8765 21.297 31.7864 21.4056 30.8705 20.9582C29.9546 20.5108 29.3701 19.5843 29.3609 18.565C29.3775 17.8243 29.6844 17.1198 30.2154 16.6031C30.6889 16.2279 31.2713 16.0163 31.8753 16C32.5965 15.9972 33.289 16.2824 33.7991 16.7923C34.3092 17.3022 34.5946 17.9947 34.5919 18.7159ZM24.8879 21.1902C24.9144 21.1739 24.9338 21.1619 24.9338 21.1306L24.9285 21.1276C26.7118 20.8279 28.5428 21.2047 30.0629 22.1843C30.3921 22.3497 30.7112 22.5344 31.0185 22.7376C31.0942 22.7501 31.1644 22.7851 31.22 22.838H31.1702C31.1444 22.8635 31.1315 22.8761 31.1188 22.8889C31.1062 22.9014 31.0938 22.9141 31.0691 22.9392C32.1415 23.6417 33.4786 23.8087 34.6908 23.3913H34.7413C34.7413 23.3598 34.7606 23.3479 34.7874 23.3314C34.8036 23.3214 34.8226 23.3097 34.8417 23.2909C35.6665 22.9561 36.369 22.3769 36.8549 21.631C36.8934 21.5549 36.9453 21.4864 37.0081 21.4287C38.1147 20.5743 39.9761 21.8318 39.0198 23.0894C38.6351 23.6647 38.1788 24.1887 37.6618 24.6489C35.9894 26.0977 33.6846 26.5741 31.5749 25.9072C30.6698 27.4667 29.8146 29.0261 28.9586 30.6354C29.3119 30.8362 29.6636 31.0378 29.9656 31.2393L29.8652 31.3397C30.7733 31.9443 31.676 32.6486 32.2293 33.1022C32.9762 33.6551 33.8461 35.5906 34.5268 37.105C34.717 37.5282 34.8925 37.9186 35.0463 38.2367C35.3213 38.7107 35.2382 39.3111 34.8448 39.6927C34.5182 39.9553 34.0907 40.0569 33.6809 39.9692C33.271 39.8815 32.9225 39.6138 32.732 39.2406C32.6198 38.997 32.492 38.7103 32.3543 38.4015C31.7513 37.0486 30.9601 35.2735 30.469 34.8648C29.1983 33.8526 27.7926 33.0226 26.2925 32.3988C26.2691 32.3988 26.2324 32.3867 26.1951 32.3744C26.1566 32.3618 26.1174 32.3489 26.0918 32.3489C23.9925 34.9659 20.3028 35.6695 17.3878 34.0088C16.9544 33.7444 16.6977 33.2663 16.7168 32.759C16.7359 32.2516 17.0277 31.7942 17.4797 31.5631C17.9318 31.3319 18.4734 31.3631 18.8959 31.6447C21.211 32.9528 23.5744 31.2424 24.6817 29.079C25.7385 26.9632 26.5439 25.4573 27.3991 23.8978C25.6879 23.3438 24.1284 23.8457 22.8716 25.6083C21.9153 27.016 19.5511 25.6581 20.5565 24.2496C20.9569 23.6863 21.4121 23.1639 21.9153 22.6901C22.7488 21.9745 23.7547 21.489 24.8334 21.2816V21.231C24.8524 21.212 24.8715 21.2003 24.8879 21.1902Z" fill="white"/>
<defs>
<linearGradient id="paint0_linear_4_2515" x1="0" y1="0" x2="0" y2="56" gradientUnits="userSpaceOnUse">
<stop stop-color="#FF6F48"/>
<stop offset="1" stop-color="#F02AA6"/>
</linearGradient>
</defs>
</svg>
