<svg width="56" height="56" viewBox="0 0 56 56" fill="none" xmlns="http://www.w3.org/2000/svg">
<rect width="56" height="56" rx="28" fill="url(#paint0_linear_4_2573)"/>
<path fill-rule="evenodd" clip-rule="evenodd" d="M35 22.5H33C33 19.74 30.76 17.5 28 17.5C25.24 17.5 23 19.74 23 22.5H21C19.9 22.5 19.01 23.4 19.01 24.5L19 36.5C19 37.6 19.9 38.5 21 38.5H35C36.1 38.5 37 37.6 37 36.5V24.5C37 23.4 36.1 22.5 35 22.5ZM28 19.5C29.66 19.5 31 20.84 31 22.5H25C25 20.84 26.34 19.5 28 19.5ZM28 29.5C25.24 29.5 23 27.26 23 24.5H25C25 26.16 26.34 27.5 28 27.5C29.66 27.5 31 26.16 31 24.5H33C33 27.26 30.76 29.5 28 29.5Z" fill="white"/>
<defs>
<linearGradient id="paint0_linear_4_2573" x1="0" y1="0" x2="0" y2="56" gradientUnits="userSpaceOnUse">
<stop stop-color="#FF6F48"/>
<stop offset="1" stop-color="#F02AA6"/>
</linearGradient>
</defs>
</svg>
